{
	"asset":{
		"version":"2.0",
		"generator":"Houdini GLTF 2.0 Exporter"
	},
	"accessors":[
		{
			"bufferView":0,
			"componentType":5125,
			"count":175032,
			"type":"SCALAR",
			"min":[0
			],
			"max":[117269
			]
		},
		{
			"bufferView":1,
			"componentType":5126,
			"count":117270,
			"type":"VEC3",
			"min":[-3.96345305,-1.00255227,-1.00857961
			],
			"max":[3.98922729,1.00735319,1.00491083
			]
		},
		{
			"bufferView":2,
			"componentType":5126,
			"count":117270,
			"type":"VEC2",
			"min":[0,0
			],
			"max":[1,1
			]
		},
		{
			"bufferView":3,
			"componentType":5126,
			"count":117270,
			"type":"VEC3",
			"min":[-0.999976397,-0.999994397,-0.999913692
			],
			"max":[0.999972045,0.999982715,0.999996841
			]
		},
		{
			"bufferView":4,
			"componentType":5123,
			"count":10809,
			"type":"SCALAR",
			"min":[0
			],
			"max":[4475
			]
		},
		{
			"bufferView":5,
			"componentType":5126,
			"count":4476,
			"type":"VEC3",
			"min":[-3.95350432,-0.992553174,-0.998580694
			],
			"max":[3.97923374,0.997356057,0.994911015
			]
		},
		{
			"bufferView":6,
			"componentType":5126,
			"count":4476,
			"type":"VEC2",
			"min":[0,1
			],
			"max":[0,1
			]
		},
		{
			"bufferView":7,
			"componentType":5126,
			"count":4476,
			"type":"VEC3",
			"min":[-0.997790337,-0.915423751,-0.998633742
			],
			"max":[0.99952817,0.946976721,0.989506662
			]
		}
	],
	"buffers":[
		{
			"uri":"abstract_data.bin",
			"byteLength":4617620,
			"name":"main_buffer"
		}
	],
	"bufferViews":[
		{
			"buffer":0,
			"byteLength":700128,
			"target":34963
		},
		{
			"buffer":0,
			"byteOffset":700128,
			"byteLength":1407240,
			"target":34962
		},
		{
			"buffer":0,
			"byteOffset":2107368,
			"byteLength":938160,
			"target":34962
		},
		{
			"buffer":0,
			"byteOffset":3045528,
			"byteLength":1407240,
			"target":34962
		},
		{
			"buffer":0,
			"byteOffset":4452768,
			"byteLength":21618,
			"target":34963
		},
		{
			"buffer":0,
			"byteOffset":4474388,
			"byteLength":53712,
			"target":34962
		},
		{
			"buffer":0,
			"byteOffset":4528100,
			"byteLength":35808,
			"target":34962
		},
		{
			"buffer":0,
			"byteOffset":4563908,
			"byteLength":53712,
			"target":34962
		}
	],
	"nodes":[
		{
			"name":"sphere1",
			"mesh":0
		}
	],
	"meshes":[
		{
			"primitives":[
				{
					"attributes":{
						"NORMAL":3,
						"TEXCOORD_0":2,
						"POSITION":1
					},
					"indices":0,
					"material":0
				},
				{
					"attributes":{
						"NORMAL":7,
						"TEXCOORD_0":6,
						"POSITION":5
					},
					"indices":4,
					"material":1
				}
			],
			"name":"merge1"
		}
	],
	"materials":[
		{
			"name":"metal",
			"pbrMetallicRoughness":{
				"baseColorFactor":[1,0.666666687,0.498039216,1
				],
				"roughnessFactor":0.100000001
			}
		},
		{
			"name":"translucent",
			"pbrMetallicRoughness":{
				"baseColorFactor":[0.5,0.5,0.5,1
				],
				"metallicFactor":0,
				"roughnessFactor":0.400000006
			}
		}
	],
	"scenes":[
		{
			"nodes":[0
			]
		}
	],
	"scene":0
}
