{
	"asset":{
		"version":"2.0",
		"generator":"Houdini GLTF 2.0 Exporter"
	},
	"accessors":[
		{
			"bufferView":0,
			"componentType":5125,
			"count":380232,
			"type":"SCALAR",
			"min":[0
			],
			"max":[63367
			]
		},
		{
			"bufferView":1,
			"componentType":5126,
			"count":63368,
			"type":"VEC3",
			"min":[-2.85333633,-2.88875103,-2.33406115
			],
			"max":[2.36570978,2.713135,2.69593954
			]
		}
	],
	"buffers":[
		{
			"uri":"virus_data.bin",
			"byteLength":2281344,
			"name":"main_buffer"
		}
	],
	"bufferViews":[
		{
			"buffer":0,
			"byteLength":1520928,
			"target":34963
		},
		{
			"buffer":0,
			"byteOffset":1520928,
			"byteLength":760416,
			"target":34962
		}
	],
	"nodes":[
		{
			"name":"geo1",
			"mesh":0
		}
	],
	"meshes":[
		{
			"primitives":[
				{
					"attributes":{
						"POSITION":1
					},
					"indices":0,
					"material":0
				}
			],
			"name":"material1"
		}
	],
	"materials":[
		{
			"name":"principledshader1",
			"pbrMetallicRoughness":{
				"baseColorFactor":[1,0.459999979,1,1
				],
				"metallicFactor":0.949000001,
				"roughnessFactor":0.0599999987
			}
		}
	],
	"scenes":[
		{
			"nodes":[0
			]
		}
	],
	"scene":0
}
